# xmcd CD database file
#
# Track frame offsets:
#	150
#	14845
#	30686
#	46611
#	69319
#	88872
#	105700
#	121268
#	136531
#	151316
#
# Disc length: 2239 seconds
#
# Revision: 0
# Processed by: cddbd v1.4PL0 Copyright (c) Steve Scherf et al.
# Submitted via: CDex 1.50beta8
#
DISCID=7708bd0a
DTITLE=The Tom Catmull Band - Slippery Hill
DYEAR=2002
DGENRE=Blues
TTITLE0=Sweet Imagination
TTITLE1=Home is Where the Head is
TTITLE2=Slippery Hill
TTITLE3=Confession
TTITLE4=Every One of those Men
TTITLE5=Unsteady
TTITLE6=Wanted in Chicago
TTITLE7=Dandelion Desert
TTITLE8=Texas Moon
TTITLE9=Cleopatra
EXTD=YEAR: 2002
EXTT0=
EXTT1=
EXTT2=
EXTT3=
EXTT4=
EXTT5=
EXTT6=
EXTT7=
EXTT8=
EXTT9=
PLAYORDER=
